<svg width="56" height="56" viewBox="0 0 56 56" fill="none" xmlns="http://www.w3.org/2000/svg">
<g clip-path="url(#clip0_2923_7267)">
<path d="M31.2324 28.7272V36.9119C31.1581 38.3158 31.3823 39.7195 31.8902 41.0303C32.3982 42.3412 33.1784 43.5295 34.1792 44.5167V42.3588C33.3925 40.8461 33.0032 39.1582 33.048 37.4537V35.8662H35.5766V44.1745C35.5766 44.973 35.5766 45.4008 35.5766 45.5719C35.5203 47.6448 34.837 49.6519 33.6168 51.3286C32.3966 53.0053 30.6969 54.2727 28.7418 54.9638C26.7904 54.2728 25.0934 53.0079 23.8737 51.3352C22.654 49.6625 21.9684 47.6602 21.907 45.5909C24.7588 43.6231 26.1942 40.7713 26.1942 36.9119V35.8662H29.9015V34.0316H19.9582V43.8893C20.6873 43.3836 21.3078 42.7372 21.7834 41.9881V35.8662H24.312V37.4537C24.3806 38.6882 24.1911 39.9234 23.7558 41.0805C23.3204 42.2377 22.6487 43.2914 21.7834 44.1745C21.26 44.6808 20.6719 45.1155 20.0343 45.4673C19.6497 45.6923 19.2494 45.8893 18.8365 46.0567C15.1482 44.5262 13.3515 41.6079 13.3515 37.5013V30.5714H24.312V32.6437H26.1181V28.7272H11.5454V36.9119C11.5454 41.9216 13.9029 45.2487 18.8365 47.1118C19.3023 46.9312 19.7871 46.7411 20.1769 46.5415C20.9469 51.0283 23.7226 54.1463 28.6658 56.0475C33.6089 54.1463 36.3942 51.0664 37.1546 46.5415C37.5824 46.7506 38.0292 46.9407 38.5045 47.1214C43.4286 45.2201 45.7861 41.9311 45.7861 36.9214V28.7272H31.2324ZM43.98 37.4537C43.98 41.6079 42.1928 44.5262 38.5045 46.0091C38.0878 45.8434 37.6842 45.6464 37.2972 45.4198C37.2972 44.8874 37.3733 44.3361 37.3733 43.7657V34.0316H33.0195V30.5714H43.98V37.4537ZM53.0962 16.3884H53.6666L54.1229 14.0689C53.111 13.6379 52.019 13.4272 50.9194 13.451C47.5352 13.451 45.2157 15.6184 45.2157 18.5177C45.2157 21.4171 47.2405 23.2707 50.4916 23.2707C51.8842 23.3073 53.2402 22.8225 54.294 21.9114L53.8757 21.398C53.0294 22.0183 52.0067 22.3515 50.9574 22.3487C48.6474 22.3487 46.9268 20.7611 46.9268 18.0709C46.9268 15.6469 48.3052 14.2685 50.5581 14.2685C52.3263 14.2685 53.0297 14.8009 53.0297 16.1222L53.0962 16.3884ZM39.9114 14.3066C41.0901 14.3541 41.1947 14.4396 41.1947 15.0956V21.5977C41.1947 22.2536 41.0901 22.3391 39.9114 22.3867V23.0521H44.1321V22.3867C42.9438 22.3867 42.8487 22.2536 42.8487 21.5977V15.1146C42.8487 14.4586 42.9438 14.3731 44.1321 14.3256V13.6601H39.9114V14.3066ZM37.4588 15.799C37.4588 14.5442 37.687 14.3256 38.7421 14.3066V13.6411H35.339V14.3066C36.3942 14.3066 36.6128 14.5442 36.6128 15.799V20.552L30.5289 13.6411H27.8197L27.9243 14.2495C29.027 14.4301 29.1601 14.5442 29.1601 15.5233V20.8942C29.1601 22.149 28.9319 22.3677 27.8768 22.3867V23.0521H31.2799V22.3867C30.2247 22.3867 29.9966 22.149 29.9966 20.8942V15.5423L36.7839 23.1472H37.4588V15.799ZM22.2492 14.3066C23.4279 14.3541 23.5325 14.4396 23.5325 15.0956V21.5977C23.5325 22.2536 23.4279 22.3391 22.2492 22.3867V23.0521H26.4794V22.3867C25.3006 22.3867 25.1961 22.2536 25.1961 21.5977V15.1146C25.1961 14.4586 25.3006 14.3731 26.4794 14.3256V13.6601H22.2587L22.2492 14.3066ZM21.3841 20.3429H20.8423L20.6427 20.7707C20.0628 21.9969 19.5875 22.2916 18.5228 22.2916H16.7737C16.1843 22.2916 16.1083 22.035 16.1083 21.1984V15.1146C16.1083 14.4491 16.2224 14.3161 17.5722 14.297V13.6316H13.228V14.297C14.3592 14.3446 14.4447 14.4301 14.4447 15.086V21.0463C14.4447 22.1395 14.3782 22.2251 13.3325 22.4247V23.0426H20.8613L21.3841 20.3429ZM10.861 16.3884H11.4408L11.8876 14.0689C10.8757 13.6379 9.78368 13.4272 8.68409 13.451C5.29994 13.451 2.98047 15.6184 2.98047 18.5177C2.98047 21.4171 5.00525 23.2707 8.25631 23.2707C9.64889 23.3073 11.0049 22.8225 12.0587 21.9114L11.65 21.398C10.7995 22.0173 9.77416 22.3502 8.72211 22.3487C6.41214 22.3487 4.69155 20.7611 4.69155 18.0709C4.69155 15.6469 6.06993 14.2685 8.32286 14.2685C10.091 14.2685 10.7944 14.8009 10.7944 16.1222L10.861 16.3884ZM41.3373 4.65794C41.3373 2.13884 42.5921 0.807997 44.7024 0.807997C46.8128 0.807997 48.2672 2.41452 48.2672 5.18077C48.2672 7.69036 47.0124 8.98318 44.902 8.98318C42.7917 8.98318 41.3373 7.39567 41.3373 4.65794ZM39.5787 5.09521C39.5787 7.94702 41.4799 9.84823 44.6264 9.84823C47.7729 9.84823 50.0163 7.73789 50.0163 4.78152C50.0163 1.82514 48.1151 0.0285034 44.9781 0.0285034C41.8411 0.0285034 39.5787 2.13884 39.5787 5.10472V5.09521ZM36.6698 8.97367C35.4911 8.91664 35.3865 8.83108 35.3865 8.17517V5.44694L38.0102 1.72058C38.495 1.04565 38.6471 0.884046 39.341 0.855528V0.190106H36.1185V0.855528C36.9455 0.855528 37.1451 1.01713 37.1451 1.32132C37.1217 1.57026 37.0221 1.80592 36.8599 1.99625L35.0348 4.6009L33.1336 1.90119C32.9837 1.73854 32.8903 1.53182 32.8674 1.31182C32.8674 1.00762 33.0765 0.855527 33.9321 0.846021V0.190106H29.778V0.855528C30.4054 0.855528 30.567 1.04565 31.0328 1.71107L33.7325 5.51348V8.11813C33.7325 8.77405 33.6374 8.8596 32.4492 8.91664V9.58206H36.6698V8.97367ZM23.9318 5.71311L25.4527 2.28143L26.9547 5.71311H23.9318ZM24.0458 8.98318C23.0952 8.98318 22.8671 8.79306 22.8671 8.33677C22.8883 8.13887 22.9429 7.94601 23.0287 7.76641L23.6276 6.44507H27.3064L27.9338 7.89949C28.0089 8.05776 28.0541 8.22859 28.0669 8.40331C28.0669 8.79306 27.8197 8.94516 27.0022 8.95466V9.61058H30.8807V8.94516C30.1962 8.94516 30.0631 8.75503 29.7399 7.99455L26.1942 0.0950453H25.5288L22.002 8.01357C21.6693 8.75504 21.5457 8.90713 20.8518 8.96417V9.62959H24.0173L24.0458 8.98318ZM10.7374 8.98318C9.68222 8.98318 9.45407 8.73602 9.45407 7.48123V2.06279L13.1709 9.30638H13.5131L17.211 2.02477V8.14665C17.211 8.80256 17.1254 8.88812 15.9942 8.94516V9.61058H20.0723V8.94516C18.9506 8.88812 18.8555 8.80256 18.8555 8.14665V1.64453C18.8555 0.998118 18.9506 0.903058 20.0723 0.855528V0.190106H17.2205L13.7603 7.01543L10.3667 0.190106H7.34374V0.855528C8.42742 0.9696 8.62705 1.07417 8.62705 2.28143V7.47172C8.62705 8.72652 8.3989 8.94516 7.34374 8.97367V9.63909H10.7469L10.7374 8.98318Z" fill="#080808"/>
</g>
<defs>
<clipPath id="clip0_2923_7267">
<rect width="51.3325" height="56" fill="white" transform="translate(3)"/>
</clipPath>
</defs>
</svg>
